<svg xmlns="http://www.w3.org/2000/svg" width="54" height="54" viewBox="0 0 54 54"><g transform="translate(0 0.477)"><rect width="54" height="54" transform="translate(0 -0.477)" fill="none"/><g transform="translate(5.198 2.545)"><path d="M270.326,37h10c.161,0-.062.15,0,0a1.919,1.919,0,0,0,0-1l-3-2a11.608,11.608,0,0,1,11-3c.168.045.907.147,1,0a1.657,1.657,0,0,0,0-1,11.236,11.236,0,0,0-9-4,12.219,12.219,0,0,0-8,3l-2-3a1.919,1.919,0,0,0-1,0c-.15.062,0-.161,0,0V37C269.326,37.221,270.105,37,270.326,37Z" transform="translate(-250.024 -25.523)" fill="none" stroke="#201d48" stroke-linecap="round" stroke-linejoin="round" stroke-width="2"/><path d="M245.336,38.785h4l6,28h31l2-23h-38" transform="translate(-245.034 -28.307)" fill="none" stroke="#201d48" stroke-linecap="round" stroke-linejoin="round" stroke-width="2"/><line x2="24" transform="translate(13.302 23.478)" fill="none" stroke="#201d48" stroke-linecap="round" stroke-linejoin="round" stroke-width="2"/><line x2="22" transform="translate(15.302 30.478)" fill="none" stroke="#201d48" stroke-linecap="round" stroke-linejoin="round" stroke-width="2"/><path d="M257.989,73.9v5h30" transform="translate(-247.688 -35.417)" fill="none" stroke="#201d48" stroke-linecap="round" stroke-linejoin="round" stroke-width="2"/><circle cx="2.5" cy="2.5" r="2.5" transform="translate(8.302 43.478)" fill="none" stroke="#201d48" stroke-linecap="round" stroke-linejoin="round" stroke-width="2"/><path d="M298.164,83.241c0,1.388-1.611,2-3,2s-2-.612-2-2,.611-3,2-3A3.423,3.423,0,0,1,298.164,83.241Z" transform="translate(-254.862 -36.763)" fill="none" stroke="#201d48" stroke-linecap="round" stroke-linejoin="round" stroke-width="2"/></g></g></svg>