<svg xmlns="http://www.w3.org/2000/svg" width="64" height="64" viewBox="0 0 64 64"><g transform="translate(-1704 -1844)"><rect width="64" height="64" transform="translate(1704 1844)" fill="none"/><g transform="translate(1359.073 1388.186)"><path d="M359.427,500.218c1.315,2.725,3.763,7.481,5,10,.9,1.839,2.15,3,4,3h13c2.461,0,4-.774,4-3,0-1.863-.693-3.6-2-4l-12-1-4-10c-1.827-4.5-5.513-7-9-7-4.785,0-7.987,2.615-9,9l-2,15h15" transform="translate(0 -2.904)" fill="none" stroke="#201d48" stroke-linecap="round" stroke-linejoin="round" stroke-width="2"/><path d="M355.449,474.314c0,4.777,4.223,8,9,8a7.582,7.582,0,0,0,8-8c0-4.777-3.223-9-8-9A9.259,9.259,0,0,0,355.449,474.314Z" transform="translate(-1.022)" fill="none" stroke="#201d48" stroke-linejoin="round" stroke-width="2"/><path d="M411,501.188l-27-6v-23l27,6Z" transform="translate(-4.577 -0.874)" fill="none" stroke="#201d48" stroke-linejoin="round" stroke-width="2"/><path d="M380.243,508.1l-2-1,8-4,21,5-8,4-11-2" transform="translate(-3.817 -4.787)" fill="none" stroke="#201d48" stroke-linejoin="round" stroke-width="2"/><line y2="4" transform="translate(388.427 496.314)" fill="none" stroke="#201d48" stroke-linejoin="round" stroke-width="2"/><line y2="4" transform="translate(393.427 497.314)" fill="none" stroke="#201d48" stroke-linejoin="round" stroke-width="2"/><line transform="translate(382.427 475.314)" fill="none" stroke="#201d48" stroke-linecap="round" stroke-linejoin="round" stroke-width="2"/></g></g></svg>