<svg xmlns="http://www.w3.org/2000/svg" width="48" height="48" viewBox="0 0 48 48"><g transform="translate(-204 -366)"><rect width="48" height="48" transform="translate(204 366)" fill="none"/><g transform="translate(205.947 369.569)"><path d="M397.54,58.02v19h-40v-19" transform="translate(-355.986 -36.088)" fill="none" stroke="#e30613" stroke-linejoin="round" stroke-width="2"/><path d="M399.259,41.281a1.23,1.23,0,0,1,1,1v13h-45v-13a1.224,1.224,0,0,1,1-1Z" transform="translate(-355.705 -33.35)" fill="none" stroke="#e30613" stroke-linejoin="round" stroke-width="2"/><path d="M385.662,40.173v-2a2.8,2.8,0,0,0-3-3h-3a2.8,2.8,0,0,0-3,3v2" transform="translate(-359.108 -32.242)" fill="none" stroke="#e30613" stroke-linejoin="round" stroke-width="2"/><line y2="14" transform="translate(28.554 7.931)" fill="none" stroke="#e30613" stroke-linejoin="round" stroke-width="2"/><line y1="14" transform="translate(15.554 7.931)" fill="none" stroke="#e30613" stroke-linejoin="round" stroke-width="2"/><line y2="14" transform="translate(28.554 26.931)" fill="none" stroke="#e30613" stroke-linejoin="round" stroke-width="2"/><line y1="14" transform="translate(15.554 26.931)" fill="none" stroke="#e30613" stroke-linejoin="round" stroke-width="2"/><path d="M373.711,36.674c-2.009-2.31-5.6-5-10-5-6.318,0-5,8-5,8" transform="translate(-356.158 -31.743)" fill="none" stroke="#e30613" stroke-linejoin="round" stroke-width="2"/><path d="M387.609,36.674c2-2.331,5.524-5,10-5,6.318,0,5,8,5,8" transform="translate(-361.056 -31.743)" fill="none" stroke="#e30613" stroke-linejoin="round" stroke-width="2"/></g></g></svg>